<?xml version="1.0"?>
<svg width="861" height="977" xmlns="http://www.w3.org/2000/svg" xmlns:svg="http://www.w3.org/2000/svg">
 <g>
  <title>Layer 1</title>
  <g id="svg_1">
   <polygon id="svg_2" points="694.2869873046875,746.2849931716919 423.26300048828125,901.5890092849731 65.67900085449219,695.1230058670044 65.67900085449219,282.26201343536377 423.26300048828125,75.83099842071533 780.760009765625,282.26201343536377 780.760009765625,541.0379838943481 846.489990234375,541.0379838943481 846.489990234375,244.32300281524658 423.26300048828125,0 0,244.32300281524658 0,733.0260210037231 423.26300048828125,977.4079790115356 728.2349853515625,802.5849809646606 " fill="#2980b9"/>
   <path id="svg_3" d="m860.077997,680.325c0.697,28.693 -21.949,52.453 -50.57,53.211c-28.55,0.612 -52.384,-21.999 -53.083,-50.631c-0.708,-28.611 21.951,-52.337 50.585,-53.068c28.609,-0.676 52.382,21.893 53.068,50.488" fill="#2980b9"/>
   <polygon id="svg_4" points="337.5480041503906,459.5500078201294 390.677001953125,614.9590044021606 400.8509826660156,614.9590044021606 445.63702392578125,614.9590044021606 455.81597900390625,614.9590044021606 508.9439697265625,459.5500078201294 508.9439697265625,614.9590044021606 565.6790161132812,614.9590044021606 565.6790161132812,362.5209856033325 508.9439697265625,362.5209856033325 485.96697998046875,362.5209856033325 423.1679992675781,548.4389848709106 360.5069885253906,362.5209856033325 337.5480041503906,362.5209856033325 280.7560119628906,362.5209856033325 280.7560119628906,614.9590044021606 337.5480041503906,614.9590044021606 " fill="#2980b9"/>
  </g>
 </g>
</svg>